<svg xmlns="http://www.w3.org/2000/svg" viewBox="0 0 720 420" role="img" aria-label="Four Stations – Zielspiel aus vier Distanzen">
  <style>
    .panel { fill: var(--surface); }
    .green { fill: color-mix(in oklab, var(--cat-pitching) 10%, var(--surface)); }
    .flag { fill: var(--primary); }
    .hole { fill: var(--surface); stroke: var(--accent-iron); }
    .station { fill: var(--primary); opacity: 0.9; }
    .arrow { stroke: var(--primary); stroke-width: 2; marker-end: url(#arrow); }
    .circle1, .circle2 { fill: none; stroke-width: 2; }
    .circle1 { stroke: color-mix(in oklab, var(--primary) 60%, var(--surface)); stroke-dasharray: 5 4; }
    .circle2 { stroke: color-mix(in oklab, var(--primary) 30%, var(--surface)); stroke-dasharray: 2 6; }
    .muted { fill: color-mix(in oklab, var(--accent-iron) 60%, #fff); font: 500 12px/1 ui-sans-serif, system-ui; }
  </style>

  <!-- Hintergrund -->
  <rect x="0" y="0" width="720" height="420" rx="16" ry="16" class="panel"/>

  <!-- Green -->
  <ellipse cx="500" cy="180" rx="180" ry="100" class="green"/>

  <!-- Zielkreise -->
  <circle cx="500" cy="180" r="30" class="circle1"/>
  <circle cx="500" cy="180" r="60" class="circle2"/>

  <!-- Loch & Fahne -->
  <circle cx="500" cy="180" r="6" class="hole"/>
  <rect x="499" y="120" width="2" height="60" fill="var(--accent-iron)"/>
  <path d="M501,120 l18,6 l-18,6 z" class="flag"/>

  <!-- Stationen -->
  <circle cx="350" cy="300" r="5" class="station"/>
  <circle cx="280" cy="340" r="5" class="station"/>
  <circle cx="220" cy="360" r="5" class="station"/>
  <circle cx="160" cy="370" r="5" class="station"/>

  <!-- Pfeile -->
  <line x1="160" y1="370" x2="500" y2="180" class="arrow"/>
  <line x1="220" y1="360" x2="500" y2="180" class="arrow"/>
  <line x1="280" y1="340" x2="500" y2="180" class="arrow"/>
  <line x1="350" y1="300" x2="500" y2="180" class="arrow"/>

  <defs>
    <marker id="arrow" markerWidth="8" markerHeight="8" refX="5" refY="3" orient="auto" markerUnits="strokeWidth">
      <path d="M0,0 L6,3 L0,6 Z" fill="var(--primary)" />
    </marker>
  </defs>
</svg>

